<svg xmlns="http://www.w3.org/2000/svg" xmlns:xlink="http://www.w3.org/1999/xlink" width="378.016" height="400" viewBox="0 0 378.016 400">
  <defs>
    <linearGradient id="linear-gradient" x1="1.012" y1="0.68" x2="-0.426" y2="0.271" gradientUnits="objectBoundingBox">
      <stop offset="0" stop-color="#122e2d"/>
      <stop offset="0.21" stop-color="#103634"/>
      <stop offset="0.54" stop-color="#094b48"/>
      <stop offset="0.9" stop-color="#006a65"/>
    </linearGradient>
    <linearGradient id="linear-gradient-2" x1="0.938" y1="0.536" x2="0.939" y2="0.538" gradientUnits="objectBoundingBox">
      <stop offset="0" stop-color="#122e2d"/>
      <stop offset="1" stop-color="#006665"/>
    </linearGradient>
    <linearGradient id="linear-gradient-3" x1="0.471" y1="-0.005" x2="0.466" y2="-0.023" gradientUnits="objectBoundingBox">
      <stop offset="0.06" stop-color="#e6e7e8"/>
      <stop offset="0.21" stop-color="#f0f1f1"/>
      <stop offset="0.48" stop-color="#fbfbfc"/>
      <stop offset="0.77" stop-color="#fff"/>
    </linearGradient>
    <linearGradient id="linear-gradient-4" x1="-0.131" y1="0.5" x2="0.869" y2="0.5" gradientUnits="objectBoundingBox">
      <stop offset="0" stop-color="#d1d3d4"/>
      <stop offset="0.71" stop-color="#fff"/>
    </linearGradient>
  </defs>
  <g id="Layer_2" data-name="Layer 2" transform="translate(0 0.022)">
    <g id="Layer_1" data-name="Layer 1" transform="translate(0 -0.023)">
      <g id="Artboard">
        <g id="White-leader-badge">
          <path id="Fill-161" d="M0,279.118V30.315a2.643,2.643,0,0,1,2.26-2.643L188.625.007a2.485,2.485,0,0,1,.767,0L375.756,27.764a2.643,2.643,0,0,1,2.26,2.643V279.118a2.644,2.644,0,0,1-1.23,2.234L190.422,399.567a2.643,2.643,0,0,1-2.829,0L1.229,281.352A2.643,2.643,0,0,1,0,279.118Z" transform="translate(0 0.023)" fill="#b5b5b5" fill-rule="evenodd"/>
          <path id="Fill-162" d="M369.139,35.494a7.151,7.151,0,0,0-1.533-3.066L189.886,5.781a17.592,17.592,0,0,0-2.551,0h-2.551L6.72,32.427a7.256,7.256,0,0,0-1.52,3.04v236.59a6.913,6.913,0,0,0,1.533,3.04l180.6,115.863L367.606,275.018a7.006,7.006,0,0,0,1.52-3.014Z" transform="translate(1.673 1.875)" fill="#006665" fill-rule="evenodd"/>
          <g id="right" transform="translate(189.008 15.309)">
            <path id="Path_103804" data-name="Path 103804" d="M143,11.56V381.434L315.922,266.655V37.069Z" transform="translate(-143 -11.56)" fill-rule="evenodd" fill="url(#linear-gradient)"/>
          </g>
          <path id="left" d="M11.6,266.641,185.276,381.434V11.56L12.01,37.069Z" transform="translate(3.732 3.749)" fill-rule="evenodd" fill="url(#linear-gradient-2)"/>
          <path id="Fill-18-Copy-4" d="M257.725,121.67l4.177,8.9,9.358,1.427-6.767,6.926,1.6,9.794-8.367-4.626-8.367,4.626,1.6-9.794-6.767-6.926,9.345-1.427Z" transform="translate(78.564 39.175)" fill="#ffcb00" fill-rule="evenodd"/>
          <path id="Fill-18-Copy-4-2" data-name="Fill-18-Copy-4" d="M34.865,121.67l4.19,8.9,9.345,1.427-6.767,6.926,1.6,9.794-8.367-4.626L26.5,148.713l1.6-9.794-6.767-6.926,9.358-1.427Z" transform="translate(6.863 39.175)" fill="#ffcb00" fill-rule="evenodd"/>
          <g id="Sash-and-text" transform="translate(22.985 216.821)">
            <path id="Rectangle" d="M17.39,164.02H349.436v49.473L297.558,245.65H69.268L17.39,213.492Z" transform="translate(-17.39 -164.02)" fill-rule="evenodd" fill="url(#linear-gradient-3)"/>
          </g>
          <path id="Rectangle-2" data-name="Rectangle" d="M17.39,164.02H349.436L69.268,245.65,17.39,213.492Z" transform="translate(5.595 52.801)" fill-rule="evenodd" fill="url(#linear-gradient-4)"/>
          <g id="year" transform="translate(68.73 230.011)" style="isolation: isolate">
            <text id="Winter_2024" data-name="Winter 2024" transform="translate(117 40)" fill="#231f20" font-size="44" font-family="Arial-BoldMT, Arial" font-weight="700" letter-spacing="-0.03em"><tspan x="-116.699" y="0">Winter 2024</tspan></text>
          </g>
        </g>
      </g>
      <g id="logo" transform="translate(68.625 155.783)">
        <path id="Path_103805" data-name="Path 103805" d="M236.381,126.748V117.84H232.8s0,2.643-4.454,6.252c-3.45,2.789-9.754,2.643-9.754,2.643v5.287h3.582l-.066,21.32h14.275V132.049h3.6v-5.287Z" transform="translate(1.703 -117.84)" fill="#f1f2f2"/>
        <path id="Path_103806" data-name="Path 103806" d="M209.076,124.58c-9.252,0-16.006,5.287-16.006,13.336,0,8.9,6.609,13.35,16.006,13.35s15.993-4.454,15.993-13.35c-.066-8.036-6.7-13.336-15.993-13.336m1.718,21.306s0,.859-1.784.859-1.8-.859-1.8-.859V129.88s0-.859,1.8-.859,1.784.859,1.784.859Z" transform="translate(-6.507 -115.672)" fill="#f1f2f2"/>
        <path id="Path_103807" data-name="Path 103807" d="M183,126.732s-19.522-2.643-19.522,13.336c0,13.812,16.006,13.35,16.006,13.35h19.522V117.89H183Zm0,21.306h-1.784c-.872,0-3.6-2.643-3.6-8.9,0-7.111,1.8-7.111,1.8-7.111H183Z" transform="translate(-16.027 -117.824)" fill="#f1f2f2"/>
        <path id="Path_103808" data-name="Path 103808" d="M69.644,125.876c0-.859,1.8-.859,1.8-.859h3.582v-3.582s-5.287-3.6-9.768-3.6c-13.336,0-13.336,6.054-13.336,8.908,0,2.643,1.52,4.771,3.251,8.5,2.194,4.705,4.507,8.089,2.987,10.151a4.428,4.428,0,0,1-2.643.859h-3.6v5.287a14.843,14.843,0,0,0,2.643.872,49.155,49.155,0,0,0,9.754.859c5.287,0,12.411-1.8,12.411-8.9,0-4.454-6.9-14.539-7.1-17.791Z" transform="translate(-51.92 -117.84)" fill="#f1f2f2"/>
        <rect id="Rectangle_30150" data-name="Rectangle 30150" width="16.006" height="35.515" transform="translate(28.417)" fill="#f1f2f2"/>
        <path id="Path_103809" data-name="Path 103809" d="M117.529,127.223a23.355,23.355,0,0,0-10.693-2.643c-7.93,0-12.345,1.586-13.944,2.445-.33.2-.529,1.137-.529,2a7.745,7.745,0,0,0,.264,1.8s2.643-.872,10.693-.872c0,0,.859,0,.859,1.8s-.859,1.8-.859,1.8h-2.643c-2.643,0-6.106.264-7.838,1.123-2.855,1.533-4.639,3.318-4.639,7.706a10.3,10.3,0,0,0,5.287,8.9H121.9V131.744c0-.066,0-1.864-4.375-4.52m-13.35,20.46H102.4c-.872,0-1.8-1.8-1.8-5.287,0-5.287,1.8-5.287,1.8-5.287h1.784Z" transform="translate(-40.247 -115.671)" fill="#f1f2f2"/>
        <path id="Path_103810" data-name="Path 103810" d="M132.436,130.57c0-.674,1.322-.674,1.322-.674h2.181v-3.582a31.472,31.472,0,0,0-8.9-1.784c-10.019,0-10.68,4.111-10.68,6.239s1.322,4.309,2.643,7.1c1.652,3.516,3.846,6.437,2.643,7.93a3.965,3.965,0,0,1-2.445.859H116.35v3.608a25.259,25.259,0,0,0,7.1.859H126.3c3.318,0,11.354-1.322,11.354-6.609,0-3.331-5.181-10.891-5.287-13.35v-.595Z" transform="translate(-31.191 -115.688)" fill="#f1f2f2"/>
        <path id="Path_103811" data-name="Path 103811" d="M160.049,125.86a21.544,21.544,0,0,0-8.9,1.8V117.89H135.2v35.528h16.006V132.1s0-.859,1.8-.859,1.784.859,1.784.859v21.32H169V131.173s0-5.287-8.9-5.287" transform="translate(-25.126 -117.824)" fill="#f1f2f2"/>
      </g>
      <g id="top-performer" transform="translate(60.337 36.655)">
        <path id="Path_103812" data-name="Path 103812" d="M108.33,33.79V27.71h31.285v6.08H127.588V67.851H120.82V33.79Z" transform="translate(-25.484 -27.71)" fill="#fff"/>
        <path id="Path_103813" data-name="Path 103813" d="M145.046,65.768a14.076,14.076,0,0,1-7.164-1.758,11.975,11.975,0,0,1-4.732-5.075A17.394,17.394,0,0,1,131.471,51a17.949,17.949,0,0,1,1.626-7.93,12.385,12.385,0,0,1,4.679-5.287,15.094,15.094,0,0,1,14.433-.079,12.107,12.107,0,0,1,4.679,5.168A18.174,18.174,0,0,1,158.607,51a17.83,17.83,0,0,1-1.573,7.679,12.133,12.133,0,0,1-4.573,5.194,13.508,13.508,0,0,1-7.415,1.89Zm0-5.128a5.776,5.776,0,0,0,3.846-1.322,7.56,7.56,0,0,0,2.247-3.5,16.045,16.045,0,0,0,.74-5.049,17.076,17.076,0,0,0-.661-4.851,7.494,7.494,0,0,0-2.154-3.569,5.842,5.842,0,0,0-3.965-1.322,6.067,6.067,0,0,0-3.9,1.229,7.376,7.376,0,0,0-2.3,3.45,15.372,15.372,0,0,0-.767,5.089,16.3,16.3,0,0,0,.687,4.851,7.812,7.812,0,0,0,2.194,3.608,5.9,5.9,0,0,0,4.058,1.388Z" transform="translate(-18.04 -25.072)" fill="#fff"/>
        <path id="Path_103814" data-name="Path 103814" d="M156.48,74.133V36.5h6.741v4.52a10.455,10.455,0,0,1,1.427-1.864,10.852,10.852,0,0,1,2.022-1.639,11.407,11.407,0,0,1,11.539,0,10.481,10.481,0,0,1,3.965,4.824,19.971,19.971,0,0,1,1.56,8.208,21.147,21.147,0,0,1-1.454,8.459,11.01,11.01,0,0,1-4.19,5.062,11.526,11.526,0,0,1-6.252,1.679,9.252,9.252,0,0,1-2.974-.449,8.407,8.407,0,0,1-2.406-1.216,11.406,11.406,0,0,1-1.89-1.639,9.861,9.861,0,0,1-1.322-1.917v13.6ZM170.305,60.7a6.252,6.252,0,0,0,5.049-2.432q2.009-2.419,2-7.613a11.962,11.962,0,0,0-1.864-7.1,6.054,6.054,0,0,0-5.181-2.643,5.921,5.921,0,0,0-5.287,2.736,12.477,12.477,0,0,0-1.784,6.952,15.252,15.252,0,0,0,.793,5.009,8.433,8.433,0,0,0,2.392,3.714,5.776,5.776,0,0,0,3.886,1.375Z" transform="translate(-9.992 -25.057)" fill="#fff"/>
        <path id="Path_103815" data-name="Path 103815" d="M45.65,106.852V66.711H59.885A19.337,19.337,0,0,1,67.644,68.2a11.75,11.75,0,0,1,7.362,11.473,12.53,12.53,0,0,1-1.784,6.807,11.446,11.446,0,0,1-4.983,4.322,17.315,17.315,0,0,1-7.468,1.507H52.5v14.539ZM52.444,86.92h8.208a8.076,8.076,0,0,0,5.763-2.1,7.217,7.217,0,0,0,2.168-5.525,6.5,6.5,0,0,0-2.326-5.287A8.961,8.961,0,0,0,60.4,72.1H52.47Z" transform="translate(-45.65 -15.163)" fill="#fff"/>
        <path id="Path_103816" data-name="Path 103816" d="M76.792,91.405a10.706,10.706,0,0,0,.78,4.335,6.675,6.675,0,0,0,2.379,2.947,6.86,6.86,0,0,0,3.965,1.071,7.851,7.851,0,0,0,4.15-1.071,5.208,5.208,0,0,0,2.339-3.265h6.146a9.754,9.754,0,0,1-2.379,5.089,12.306,12.306,0,0,1-4.573,3.159A15.517,15.517,0,0,1,76.726,103a12.358,12.358,0,0,1-4.917-5.036,16.27,16.27,0,0,1-1.758-7.811,18.108,18.108,0,0,1,1.613-7.838A12.662,12.662,0,0,1,76.3,76.919a14.83,14.83,0,0,1,14.46-.172A11.327,11.327,0,0,1,95.1,81.783a17.962,17.962,0,0,1,1.494,7.574v2.049Zm0-4.19H90.261a9.57,9.57,0,0,0-.727-3.767,5.882,5.882,0,0,0-2.207-2.643,6.609,6.609,0,0,0-3.727-.991A6.291,6.291,0,0,0,79.846,80.9a6.847,6.847,0,0,0-2.3,2.789,8.287,8.287,0,0,0-.753,3.529Z" transform="translate(-37.801 -12.511)" fill="#fff"/>
        <path id="Path_103817" data-name="Path 103817" d="M94.91,104.2V75.509h6.463v6.212a10.349,10.349,0,0,1,2-3.648,8.631,8.631,0,0,1,3.04-2.313,8.882,8.882,0,0,1,3.793-.806,7.933,7.933,0,0,1,.978,0,1.784,1.784,0,0,1,.687.2v6.477a2.644,2.644,0,0,0-.793-.2,6.739,6.739,0,0,0-.846,0,13.1,13.1,0,0,0-3.674.172,6.926,6.926,0,0,0-2.643,1.123,5.036,5.036,0,0,0-1.652,2,6.688,6.688,0,0,0-.555,2.815V104.2Z" transform="translate(-29.801 -12.515)" fill="#fff"/>
        <path id="Path_103818" data-name="Path 103818" d="M129.6,78.158v4.8h-6.463v23.923h-6.754V82.955H110.7v-4.8h5.683V73.875a7.084,7.084,0,0,1,1.9-5.287,7.507,7.507,0,0,1,5.5-1.864h6.054v4.613h-3.965a2.564,2.564,0,0,0-2.247.846,4.586,4.586,0,0,0-.608,2.643v3.331Z" transform="translate(-24.721 -15.164)" fill="#fff"/>
        <path id="Path_103819" data-name="Path 103819" d="M141.306,104.768a14.076,14.076,0,0,1-7.164-1.758,11.975,11.975,0,0,1-4.732-5.075A17.183,17.183,0,0,1,127.732,90a17.949,17.949,0,0,1,1.626-7.93,12.385,12.385,0,0,1,4.679-5.287,15.094,15.094,0,0,1,14.433-.079,12.107,12.107,0,0,1,4.679,5.168,18.174,18.174,0,0,1,1.652,8.076,17.83,17.83,0,0,1-1.6,7.732,12.134,12.134,0,0,1-4.573,5.194A13.508,13.508,0,0,1,141.306,104.768Zm0-5.128a5.776,5.776,0,0,0,3.846-1.322,7.56,7.56,0,0,0,2.247-3.5,16.045,16.045,0,0,0,.74-5.049,17.077,17.077,0,0,0-.661-4.851,7.494,7.494,0,0,0-2.154-3.569,5.842,5.842,0,0,0-3.965-1.322,6.067,6.067,0,0,0-3.9,1.229,7.375,7.375,0,0,0-2.3,3.45,15.372,15.372,0,0,0-.767,5.089,16.3,16.3,0,0,0,.687,4.851,7.811,7.811,0,0,0,2.194,3.608,5.9,5.9,0,0,0,4.031,1.388Z" transform="translate(-19.244 -12.524)" fill="#fff"/>
        <path id="Path_103820" data-name="Path 103820" d="M152.7,104.2V75.509h6.463v6.212a10.574,10.574,0,0,1,2-3.648,8.631,8.631,0,0,1,3.04-2.313,8.882,8.882,0,0,1,3.793-.806,7.933,7.933,0,0,1,.978,0,1.705,1.705,0,0,1,.687.2v6.477a2.644,2.644,0,0,0-.793-.2,6.738,6.738,0,0,0-.846,0,13.1,13.1,0,0,0-3.674.172,6.926,6.926,0,0,0-2.643,1.123,5.036,5.036,0,0,0-1.652,2,6.688,6.688,0,0,0-.555,2.815V104.2Z" transform="translate(-11.208 -12.515)" fill="#fff"/>
        <path id="Path_103821" data-name="Path 103821" d="M169.42,104.207V75.512h6.609v4.1a11.38,11.38,0,0,1,3.41-3.265,9.887,9.887,0,0,1,5.472-1.322,9.583,9.583,0,0,1,3.106.529,9.794,9.794,0,0,1,2.908,1.546,7.746,7.746,0,0,1,2.154,2.551,10.732,10.732,0,0,1,3.542-3.4,10.085,10.085,0,0,1,5.089-1.322,10.745,10.745,0,0,1,3.212.5,8.657,8.657,0,0,1,3.04,1.652,8.42,8.42,0,0,1,2.247,3.185,12.953,12.953,0,0,1,.952,5.062v18.874h-6.741V86.138a6.384,6.384,0,0,0-.753-3.357,4.256,4.256,0,0,0-1.93-1.731,6.239,6.239,0,0,0-2.511-.515A7.468,7.468,0,0,0,196.74,81a5.287,5.287,0,0,0-2.194,1.56,4.454,4.454,0,0,0-.9,2.921v18.729h-6.741V85.055a3.965,3.965,0,0,0-.859-2.5,5,5,0,0,0-1.956-1.507,5.974,5.974,0,0,0-2.406-.515,6.609,6.609,0,0,0-2.538.529,5.287,5.287,0,0,0-2.154,1.6,4.441,4.441,0,0,0-.859,2.815v18.729Z" transform="translate(-5.829 -12.518)" fill="#fff"/>
        <path id="Path_103822" data-name="Path 103822" d="M212.083,91.4a10.706,10.706,0,0,0,.78,4.335,6.675,6.675,0,0,0,2.379,2.947,6.86,6.86,0,0,0,3.965,1.071,7.851,7.851,0,0,0,4.15-1.071,5.208,5.208,0,0,0,2.339-3.265h6.186a9.754,9.754,0,0,1-2.379,5.089,12.306,12.306,0,0,1-4.573,3.159,15.517,15.517,0,0,1-12.874-.674,12.358,12.358,0,0,1-4.917-5.036,16.27,16.27,0,0,1-1.758-7.811,18.108,18.108,0,0,1,1.613-7.838,12.662,12.662,0,0,1,4.639-5.393,14.83,14.83,0,0,1,14.394-.172,11.327,11.327,0,0,1,4.388,5.036,17.962,17.962,0,0,1,1.494,7.574V91.4Zm0-4.19h13.468a9.57,9.57,0,0,0-.727-3.767,5.882,5.882,0,0,0-2.207-2.643,6.609,6.609,0,0,0-3.727-.991,6.291,6.291,0,0,0-3.754,1.084,6.847,6.847,0,0,0-2.326,2.776,8.287,8.287,0,0,0-.727,3.542Z" transform="translate(5.739 -12.507)" fill="#fff"/>
        <path id="Path_103823" data-name="Path 103823" d="M230.21,104.2V75.509h6.463v6.212a10.574,10.574,0,0,1,2-3.648,8.631,8.631,0,0,1,3.04-2.313,8.882,8.882,0,0,1,3.793-.806,7.933,7.933,0,0,1,.978,0,1.784,1.784,0,0,1,.687.2v6.476a2.643,2.643,0,0,0-.793-.2,6.739,6.739,0,0,0-.846,0,13.1,13.1,0,0,0-3.7.2,6.926,6.926,0,0,0-2.643,1.123,5.036,5.036,0,0,0-1.652,2,6.687,6.687,0,0,0-.555,2.815V104.2Z" transform="translate(13.729 -12.515)" fill="#fff"/>
      </g>
    </g>
  </g>
</svg>
