<svg xmlns="http://www.w3.org/2000/svg" xmlns:xlink="http://www.w3.org/1999/xlink" width="400" height="400" viewBox="0 0 400 400">
  <defs>
    <linearGradient id="linear-gradient" x1="0.5" x2="0.5" y2="1" gradientUnits="objectBoundingBox">
      <stop offset="0" stop-color="#1e1e1e"/>
      <stop offset="1" stop-color="#0d0d0d"/>
    </linearGradient>
    <linearGradient id="linear-gradient-2" x1="1.98" y1="0.395" x2="0.774" y2="0.5" gradientUnits="objectBoundingBox">
      <stop offset="0" stop-color="#ffcb00"/>
      <stop offset="1" stop-color="#f06a2b"/>
    </linearGradient>
  </defs>
  <g id="Outstanding-Winter-2021-white" transform="translate(0.001)">
    <g id="Group-4" transform="translate(-0.001)">
      <g id="Group-2" transform="translate(200) rotate(45)">
        <rect id="Rectangle" width="282.841" height="282.841" fill="#c7baaf"/>
        <rect id="Rectangle-2" data-name="Rectangle" width="267.728" height="267.728" transform="translate(7.557 7.557)" fill="#f06a2b"/>
        <rect id="Rectangle-3" data-name="Rectangle" width="250.455" height="250.455" transform="translate(16.193 16.193)" fill="url(#linear-gradient)"/>
      </g>
      <path id="Fill-18-Copy-4" d="M121.255,242l3.17,6.751,7.087,1.084-5.129,5.254,1.212,7.422-6.34-3.5-6.338,3.5,1.211-7.422L111,249.835l7.087-1.084Z" transform="translate(8.831 19.251)" fill="#ffcb00" fill-rule="evenodd"/>
      <path id="Fill-18-Copy-4-2" data-name="Fill-18-Copy-4" d="M251.255,242l3.17,6.751,7.087,1.084-5.129,5.254,1.212,7.422-6.34-3.5-6.338,3.5,1.211-7.422L241,249.835l7.087-1.084Z" transform="translate(19.172 19.251)" fill="#ffcb00" fill-rule="evenodd"/>
      <g id="SF-logo-vector" transform="translate(167.725 53.977)">
        <path id="Rectangle-4" data-name="Rectangle" d="M27.918,0h8.046a.712.712,0,0,1,.712.712V1a1.08,1.08,0,0,1-.29.736L11.1,28.876a1.08,1.08,0,0,0,0,1.47L31.087,51.921A1.08,1.08,0,0,1,31.1,53.38L27.43,57.424a1.08,1.08,0,0,1-1.525.075q-.034-.031-.066-.065L.654,30.344a1.08,1.08,0,0,1,0-1.469L27.127.345A1.08,1.08,0,0,1,27.918,0Z" transform="translate(-0.365 0)" fill="#f06a2a" fill-rule="evenodd"/>
        <path id="Rectangle-5" data-name="Rectangle" d="M27.594,0H35.6a.718.718,0,0,1,.718.718v.3a1.08,1.08,0,0,1-.281.727L10.757,29.518a1.08,1.08,0,0,0,0,1.453L30.729,52.959a1.08,1.08,0,0,1,0,1.446l-3.658,4.082a1.08,1.08,0,0,1-1.524.084q-.04-.036-.076-.075L.283,30.971a1.08,1.08,0,0,1,0-1.455L26.795.353A1.08,1.08,0,0,1,27.594,0Z" transform="translate(65.077 62.614) rotate(180)" fill="#f06a2a" fill-rule="evenodd"/>
        <path id="Oval" d="M32.423,44.227c5.244,0,9.38-5.9,8.89-12.215-.218-2.808-1.921-7.836-2.5-6.941-.285.442.362,3.891.15,6-.352,3.508-1.679,5.644-2.357,4.395s-.445-3.713-.61-6.308a32.222,32.222,0,0,0-1.222-7.352c-.252-.758-2.626-7.2-4.337-7.807h-.209a.619.619,0,0,0-.308.139c-.377.336.19,2.547-1.381,5.24-1.031,1.768-3.041,4.073-4.026,6.336a18.288,18.288,0,0,0-1.5,7.652C23.31,40.284,27.179,44.227,32.423,44.227Z" transform="translate(1.436 1.114)" fill="#f06a2a" fill-rule="evenodd"/>
      </g>
      <path id="Rectangle-6" data-name="Rectangle" d="M70.237,149h254.6l39.747,39.4-39.747,39.4H70.237L31,188.4Z" transform="translate(2.467 11.853)" fill-rule="evenodd" fill="url(#linear-gradient-2)"/>
      <path id="Winter" d="M-39.727,1.708l-5.535-23.183h4.792L-36.975-5.55l4.238-15.924h5.566l4.064,16.193,3.558-16.193h4.712l-5.63,23.183h-4.965l-4.618-17.332-4.6,17.332Zm26.459-19.071v-4.112h4.444v4.112Zm0,19.071V-15.086h4.444V1.708Zm23.77,0H6.058V-6.863a13.247,13.247,0,0,0-.285-3.519,2.468,2.468,0,0,0-.925-1.241,2.644,2.644,0,0,0-1.542-.443,3.563,3.563,0,0,0-2.072.633A3.187,3.187,0,0,0-.022-9.757,14.489,14.489,0,0,0-.362-5.9V1.708H-4.806V-15.086H-.678v2.467a6.724,6.724,0,0,1,5.535-2.846,6.668,6.668,0,0,1,2.688.53,4.5,4.5,0,0,1,1.842,1.352,4.9,4.9,0,0,1,.87,1.866A13.879,13.879,0,0,1,10.5-8.729Zm11.7-16.794v3.542H19.17v6.768a16.834,16.834,0,0,0,.087,2.4.976.976,0,0,0,.4.561A1.254,1.254,0,0,0,20.4-1.6a5.749,5.749,0,0,0,1.787-.427l.38,3.447a8.833,8.833,0,0,1-3.511.664,5.568,5.568,0,0,1-2.166-.4A3.162,3.162,0,0,1,15.478.641a4.119,4.119,0,0,1-.625-1.732,21.54,21.54,0,0,1-.142-3.131v-7.322h-2.04v-3.542h2.04v-3.337l4.459-2.593v5.93ZM34.512-3.637l4.428.743a7.263,7.263,0,0,1-2.7,3.708,7.921,7.921,0,0,1-4.61,1.273q-4.38,0-6.484-2.862a9.616,9.616,0,0,1-1.66-5.788A9.273,9.273,0,0,1,25.672-13.1a7.187,7.187,0,0,1,5.519-2.364,7.455,7.455,0,0,1,5.914,2.475q2.166,2.475,2.072,7.583H28.044a4.5,4.5,0,0,0,1.075,3.076,3.363,3.363,0,0,0,2.562,1.1A2.721,2.721,0,0,0,33.436-1.8,3.516,3.516,0,0,0,34.512-3.637Zm.253-4.491a4.278,4.278,0,0,0-1-2.933,3.057,3.057,0,0,0-2.309-1,3.086,3.086,0,0,0-2.4,1.06,4.1,4.1,0,0,0-.933,2.878ZM46.548,1.708H42.1V-15.086h4.127V-12.7a7.177,7.177,0,0,1,1.906-2.23,3.505,3.505,0,0,1,1.921-.538,5.64,5.64,0,0,1,2.926.838l-1.376,3.874a3.9,3.9,0,0,0-2.087-.727,2.466,2.466,0,0,0-1.581.514,3.513,3.513,0,0,0-1.02,1.858,26.4,26.4,0,0,0-.372,5.63Z" transform="translate(196.117 277.895)" fill="#fff"/>
      <path id="_2021" data-name="2021" d="M-16.346-2.412V1.715H-31.922A10.727,10.727,0,0,1-30.4-2.72a29.518,29.518,0,0,1,5-5.559,31.431,31.431,0,0,0,3.685-3.8,4.889,4.889,0,0,0,.917-2.72,3.092,3.092,0,0,0-.8-2.285,2.981,2.981,0,0,0-2.206-.8,2.96,2.96,0,0,0-2.214.838,4.3,4.3,0,0,0-.949,2.783L-31.4-14.7q.4-3.669,2.483-5.266a8.337,8.337,0,0,1,5.219-1.6,7.542,7.542,0,0,1,5.392,1.85,6.069,6.069,0,0,1,1.961,4.6,8.011,8.011,0,0,1-.561,2.981,12.122,12.122,0,0,1-1.779,2.965A28.469,28.469,0,0,1-21.6-6.207q-2.1,1.929-2.665,2.562a7.671,7.671,0,0,0-.909,1.233Zm10.012-19.15a6.334,6.334,0,0,1,5.266,2.4q2.261,2.846,2.261,9.441,0,6.578-2.277,9.457a6.324,6.324,0,0,1-5.25,2.372,6.634,6.634,0,0,1-5.456-2.6q-2.072-2.6-2.072-9.275,0-6.547,2.277-9.425A6.324,6.324,0,0,1-6.333-21.562Zm0,3.685a2.22,2.22,0,0,0-1.439.514,3.45,3.45,0,0,0-.98,1.842,25.411,25.411,0,0,0-.459,5.8A25.224,25.224,0,0,0-8.8-4.112,3.942,3.942,0,0,0-7.764-2.08a2.21,2.21,0,0,0,1.431.506,2.22,2.22,0,0,0,1.439-.514,3.45,3.45,0,0,0,.98-1.842,25.186,25.186,0,0,0,.459-5.788,25.224,25.224,0,0,0-.411-5.606A4,4,0,0,0-4.9-17.364,2.189,2.189,0,0,0-6.333-17.878Zm25,15.466V1.715H3.094A10.727,10.727,0,0,1,4.612-2.72a29.518,29.518,0,0,1,5-5.559,31.431,31.431,0,0,0,3.685-3.8,4.889,4.889,0,0,0,.917-2.72,3.092,3.092,0,0,0-.8-2.285,2.981,2.981,0,0,0-2.206-.8,2.96,2.96,0,0,0-2.214.838,4.3,4.3,0,0,0-.949,2.783L3.616-14.7q.4-3.669,2.483-5.266a8.337,8.337,0,0,1,5.219-1.6,7.542,7.542,0,0,1,5.392,1.85,6.069,6.069,0,0,1,1.961,4.6,8.011,8.011,0,0,1-.561,2.981A12.122,12.122,0,0,1,16.33-9.165a28.469,28.469,0,0,1-2.91,2.957q-2.1,1.929-2.665,2.562a7.671,7.671,0,0,0-.909,1.233ZM29.885,1.715V-2.95H20.4V-6.84L30.454-21.562h3.732V-6.856h2.878V-2.95H34.186V1.715Zm0-8.571v-7.923L24.555-6.856Z" transform="translate(197.178 316.751)" fill="#fff"/>
    </g>
    <path id="Top-Performer" d="M9.781,2.259V-22.781H.838v-5.1h23.95v5.1H15.866V2.259ZM24.212-8.966a11.81,11.81,0,0,1,1.418-5.571,9.736,9.736,0,0,1,4.019-4.112,11.927,11.927,0,0,1,5.808-1.418,10.9,10.9,0,0,1,8.12,3.217,11.115,11.115,0,0,1,3.166,8.131,11.248,11.248,0,0,1-3.2,8.213A10.8,10.8,0,0,1,35.5,2.752,12.678,12.678,0,0,1,29.773,1.4a9.308,9.308,0,0,1-4.142-3.978A13.254,13.254,0,0,1,24.212-8.966Zm5.921.308a7.233,7.233,0,0,0,1.542,4.975,4.9,4.9,0,0,0,3.8,1.727,4.868,4.868,0,0,0,3.793-1.727A7.333,7.333,0,0,0,40.8-8.7a7.2,7.2,0,0,0-1.532-4.934,4.868,4.868,0,0,0-3.793-1.727,4.9,4.9,0,0,0-3.8,1.727A7.233,7.233,0,0,0,30.133-8.658ZM51.1-19.574h5.386v3.207a8.06,8.06,0,0,1,2.837-2.673,7.82,7.82,0,0,1,3.968-1.028,8.324,8.324,0,0,1,6.455,2.981Q72.4-14.105,72.4-8.781q0,5.468-2.673,8.5a8.326,8.326,0,0,1-6.476,3.032,7.358,7.358,0,0,1-3.279-.72A11.053,11.053,0,0,1,56.878-.434v11H51.1ZM56.817-9.028q0,3.68,1.46,5.438a4.465,4.465,0,0,0,3.556,1.758,4.174,4.174,0,0,0,3.351-1.614Q66.52-5.06,66.52-8.74a7.891,7.891,0,0,0-1.377-5.1A4.261,4.261,0,0,0,61.73-15.5a4.432,4.432,0,0,0-3.515,1.634A7.275,7.275,0,0,0,56.817-9.028ZM88.722,2.259V-27.879h9.765a35.41,35.41,0,0,1,7.236.452,7.9,7.9,0,0,1,4.338,2.95,9.355,9.355,0,0,1,1.747,5.869,9.833,9.833,0,0,1-1.007,4.667,8.264,8.264,0,0,1-2.559,2.971,8.82,8.82,0,0,1-3.156,1.429,34.735,34.735,0,0,1-6.311.432H94.808V2.259Zm6.085-25.039v8.552h3.33a15.735,15.735,0,0,0,4.811-.473,4,4,0,0,0,1.9-1.48,4.051,4.051,0,0,0,.689-2.344,3.893,3.893,0,0,0-.966-2.714,4.208,4.208,0,0,0-2.446-1.336,29.248,29.248,0,0,0-4.379-.206Zm34.6,18.091,5.756.966A9.442,9.442,0,0,1,131.657,1.1a10.3,10.3,0,0,1-5.993,1.655q-5.695,0-8.429-3.721a12.5,12.5,0,0,1-2.159-7.524q0-5.427,2.837-8.5a9.343,9.343,0,0,1,7.175-3.073,9.691,9.691,0,0,1,7.689,3.217q2.816,3.217,2.693,9.857H121a5.845,5.845,0,0,0,1.4,4,4.372,4.372,0,0,0,3.33,1.429,3.537,3.537,0,0,0,2.282-.74A4.57,4.57,0,0,0,129.406-4.69Zm.329-5.838a5.562,5.562,0,0,0-1.3-3.813,3.974,3.974,0,0,0-3-1.305,4.012,4.012,0,0,0-3.125,1.377,5.33,5.33,0,0,0-1.213,3.742ZM145.709,2.259h-5.777V-19.574H145.3v3.1a9.331,9.331,0,0,1,2.477-2.9,4.557,4.557,0,0,1,2.5-.7,7.332,7.332,0,0,1,3.8,1.09l-1.789,5.037a5.069,5.069,0,0,0-2.714-.946,3.206,3.206,0,0,0-2.056.668,4.567,4.567,0,0,0-1.326,2.416,34.316,34.316,0,0,0-.483,7.319Zm8.326-21.832h3.207v-1.645a10.925,10.925,0,0,1,.586-4.112,4.631,4.631,0,0,1,2.159-2.21,8.282,8.282,0,0,1,3.978-.853,16.08,16.08,0,0,1,4.831.74l-.781,4.029a11.411,11.411,0,0,0-2.652-.329,2.365,2.365,0,0,0-1.8.586,3.394,3.394,0,0,0-.545,2.251v1.542h4.317v4.543h-4.317V2.259h-5.777V-15.031h-3.207ZM169.247-8.966a11.81,11.81,0,0,1,1.418-5.571,9.736,9.736,0,0,1,4.019-4.112,11.927,11.927,0,0,1,5.808-1.418,10.9,10.9,0,0,1,8.12,3.217,11.115,11.115,0,0,1,3.166,8.131,11.248,11.248,0,0,1-3.2,8.213,10.8,10.8,0,0,1-8.048,3.258A12.678,12.678,0,0,1,174.808,1.4a9.308,9.308,0,0,1-4.142-3.978A13.254,13.254,0,0,1,169.247-8.966Zm5.921.308a7.233,7.233,0,0,0,1.542,4.975,4.9,4.9,0,0,0,3.8,1.727,4.868,4.868,0,0,0,3.793-1.727A7.333,7.333,0,0,0,185.837-8.7a7.2,7.2,0,0,0-1.532-4.934,4.868,4.868,0,0,0-3.793-1.727,4.9,4.9,0,0,0-3.8,1.727A7.233,7.233,0,0,0,175.168-8.658ZM201.831,2.259h-5.777V-19.574h5.366v3.1a9.33,9.33,0,0,1,2.477-2.9,4.557,4.557,0,0,1,2.5-.7,7.332,7.332,0,0,1,3.8,1.09l-1.789,5.037a5.069,5.069,0,0,0-2.714-.946,3.206,3.206,0,0,0-2.056.668,4.567,4.567,0,0,0-1.326,2.416,34.316,34.316,0,0,0-.483,7.319Zm10.423-21.832h5.324v2.981a8.568,8.568,0,0,1,6.8-3.474,7.329,7.329,0,0,1,3.639.863,6.635,6.635,0,0,1,2.529,2.611,10.086,10.086,0,0,1,3.1-2.611,7.616,7.616,0,0,1,3.557-.863,7.921,7.921,0,0,1,4.07.976,5.982,5.982,0,0,1,2.488,2.868,12.44,12.44,0,0,1,.6,4.523V2.259h-5.777V-10.22q0-3.248-.6-4.194a2.736,2.736,0,0,0-2.467-1.233,3.937,3.937,0,0,0-2.282.74,4.105,4.105,0,0,0-1.542,2.169,15.6,15.6,0,0,0-.473,4.512V2.259h-5.777V-9.706a16.6,16.6,0,0,0-.308-4.112,2.624,2.624,0,0,0-.956-1.377,3.022,3.022,0,0,0-1.758-.452,4.21,4.21,0,0,0-2.405.72,3.947,3.947,0,0,0-1.532,2.076,15.433,15.433,0,0,0-.463,4.5V2.259h-5.777ZM262.765-4.69l5.756.966A9.442,9.442,0,0,1,265.016,1.1a10.3,10.3,0,0,1-5.993,1.655q-5.694,0-8.429-3.721a12.5,12.5,0,0,1-2.159-7.524q0-5.427,2.837-8.5a9.343,9.343,0,0,1,7.175-3.073,9.691,9.691,0,0,1,7.689,3.217q2.816,3.217,2.693,9.857H254.357a5.845,5.845,0,0,0,1.4,4,4.372,4.372,0,0,0,3.33,1.429,3.537,3.537,0,0,0,2.282-.74A4.57,4.57,0,0,0,262.765-4.69Zm.329-5.838a5.562,5.562,0,0,0-1.3-3.813,3.974,3.974,0,0,0-3-1.305,4.012,4.012,0,0,0-3.125,1.377,5.33,5.33,0,0,0-1.213,3.742ZM279.067,2.259H273.29V-19.574h5.366v3.1a9.33,9.33,0,0,1,2.477-2.9,4.557,4.557,0,0,1,2.5-.7,7.332,7.332,0,0,1,3.8,1.09l-1.789,5.037a5.069,5.069,0,0,0-2.714-.946,3.206,3.206,0,0,0-2.056.668A4.567,4.567,0,0,0,279.55-11.8a34.314,34.314,0,0,0-.483,7.319Z" transform="translate(54.738 212.571)"/>
    <g id="SourceForge-Logo-White" transform="translate(99.318 129.546)">
      <path id="Fill-953" d="M10.979,2.856a.377.377,0,0,1-.374.249c-.11,0-.261-.084-.448-.289a4.282,4.282,0,0,0-.745-.61,4.262,4.262,0,0,0-1.2-.614A4.635,4.635,0,0,0,6.424,1.3a5.4,5.4,0,0,0-1.868.329,4.028,4.028,0,0,0-1.344.9,3.6,3.6,0,0,0-.822,1.3,4.387,4.387,0,0,0-.3,1.553,3.753,3.753,0,0,0,.407,1.8A3.742,3.742,0,0,0,3.623,8.368a5.93,5.93,0,0,0,1.567.814c.6.249,1.2.449,1.8.654a17.16,17.16,0,0,1,1.791.734,7.041,7.041,0,0,1,1.567.979,4.289,4.289,0,0,1,1.12,1.468,5.209,5.209,0,0,1,.411,2.166,7.587,7.587,0,0,1-.411,2.487,5.705,5.705,0,0,1-1.193,2.042A6.455,6.455,0,0,1,8.329,21.1a6.737,6.737,0,0,1-2.617.489,6.857,6.857,0,0,1-3.285-.734A8.037,8.037,0,0,1,0,18.819l.374-.658a.394.394,0,0,1,.371-.2.415.415,0,0,1,.3.164c.11.12.3.285.448.445.187.164.411.369.672.574a5.236,5.236,0,0,0,.9.57,6.377,6.377,0,0,0,1.16.445,5.379,5.379,0,0,0,1.49.164,5.347,5.347,0,0,0,2.056-.365A4.791,4.791,0,0,0,9.3,18.939a4.594,4.594,0,0,0,.973-1.553,5.578,5.578,0,0,0,.334-1.918,3.905,3.905,0,0,0-.407-1.833,3.392,3.392,0,0,0-1.123-1.228,5.93,5.93,0,0,0-1.567-.814c-.6-.2-1.193-.453-1.8-.654s-1.193-.453-1.791-.694a5.994,5.994,0,0,1-1.567-.979,4.9,4.9,0,0,1-1.12-1.512A5.668,5.668,0,0,1,.822,5.468,5.49,5.49,0,0,1,1.193,3.43,5.736,5.736,0,0,1,2.276,1.673,5.908,5.908,0,0,1,4.034.449,6.315,6.315,0,0,1,6.424,0,6.506,6.506,0,0,1,9.148.534a7.566,7.566,0,0,1,2.206,1.589Z" fill="#fff" fill-rule="evenodd"/>
      <path id="Fill-955" d="M32.092,10.793a12.278,12.278,0,0,0-.6-3.973A8.42,8.42,0,0,0,29.8,3.864,7.273,7.273,0,0,0,27.153,2a8.559,8.559,0,0,0-3.415-.65A8.546,8.546,0,0,0,20.323,2a7.24,7.24,0,0,0-2.649,1.865,8.558,8.558,0,0,0-1.729,2.957,12.108,12.108,0,0,0-.6,3.973,12.278,12.278,0,0,0,.6,3.973,7.979,7.979,0,0,0,1.729,2.961,7.335,7.335,0,0,0,2.649,1.865,8.615,8.615,0,0,0,3.415.65,8.494,8.494,0,0,0,3.415-.65A6.913,6.913,0,0,0,29.8,17.727a8.475,8.475,0,0,0,1.686-2.961,12.091,12.091,0,0,0,.6-3.973m1.34,0a13.21,13.21,0,0,1-.706,4.424,9.742,9.742,0,0,1-2,3.411,9.335,9.335,0,0,1-3.064,2.19,9.58,9.58,0,0,1-3.964.77,9.541,9.541,0,0,1-3.929-.77,8.81,8.81,0,0,1-3.064-2.19,9.742,9.742,0,0,1-2-3.411A13.21,13.21,0,0,1,14,10.8a13.186,13.186,0,0,1,.706-4.42,9.706,9.706,0,0,1,2-3.411A9.369,9.369,0,0,1,19.77.77,9.606,9.606,0,0,1,23.7,0a9.645,9.645,0,0,1,3.964.77,8.75,8.75,0,0,1,3.064,2.194,9.706,9.706,0,0,1,2,3.411,13.186,13.186,0,0,1,.706,4.42" transform="translate(1.114)" fill="#fff" fill-rule="evenodd"/>
      <path id="Fill-957" d="M43.6,20.237a5.782,5.782,0,0,0,2.571-.538,5.933,5.933,0,0,0,1.915-1.48A6.336,6.336,0,0,0,49.27,16a9.147,9.147,0,0,0,.422-2.8V0h1.421V13.2a10.225,10.225,0,0,1-.535,3.291,8.22,8.22,0,0,1-1.5,2.672A7.017,7.017,0,0,1,46.7,20.936a7.774,7.774,0,0,1-3.144.655,7.173,7.173,0,0,1-3.148-.655,7.631,7.631,0,0,1-2.379-1.771,7.753,7.753,0,0,1-1.493-2.672A10.307,10.307,0,0,1,36,13.2V0h1.459V13.162a9.436,9.436,0,0,0,.422,2.793,6.692,6.692,0,0,0,1.188,2.223,5.838,5.838,0,0,0,1.919,1.48,5.438,5.438,0,0,0,2.609.578" transform="translate(2.864)" fill="#fff" fill-rule="evenodd"/>
      <path id="Fill-959" d="M58.053,10.648H59.36a9.958,9.958,0,0,0,2.618-.331,5.449,5.449,0,0,0,1.942-1,4.4,4.4,0,0,0,1.224-1.542,4.549,4.549,0,0,0,.423-2.036,3.953,3.953,0,0,0-1.518-3.414A7.453,7.453,0,0,0,59.572,1.2H55.564V21.591H54V0h5.572c2.535,0,4.435.5,5.655,1.456A4.939,4.939,0,0,1,67.085,5.7a5.569,5.569,0,0,1-.419,2.249A5.437,5.437,0,0,1,65.4,9.732a6.176,6.176,0,0,1-1.942,1.247,9.548,9.548,0,0,1-2.572.667,3.293,3.293,0,0,1,.672.622l7.559,9.323H67.72a1.291,1.291,0,0,1-.423-.086.76.76,0,0,1-.34-.29l-7-8.739a1.78,1.78,0,0,0-.548-.454,11.583,11.583,0,0,0-1.859-.123c0-1.129.166-1.251.506-1.251" transform="translate(4.296)" fill="#fff" fill-rule="evenodd"/>
      <path id="Fill-961" d="M83.4,17.81a.27.27,0,0,1,.226.12l.564.651a9.532,9.532,0,0,1-1.321,1.263,7.74,7.74,0,0,1-1.584.935,13.25,13.25,0,0,1-1.848.612,9.641,9.641,0,0,1-2.226.2,8.734,8.734,0,0,1-3.74-.771,7.965,7.965,0,0,1-2.905-2.2,10.265,10.265,0,0,1-1.889-3.413A13.724,13.724,0,0,1,68,10.775a12.7,12.7,0,0,1,.716-4.389A10.342,10.342,0,0,1,70.679,2.97,8.9,8.9,0,0,1,73.7.771,9.443,9.443,0,0,1,77.588,0a9.178,9.178,0,0,1,3.625.651,6.437,6.437,0,0,1,1.432.811,10.878,10.878,0,0,1,1.321,1.1l-.412.651a.363.363,0,0,1-.341.164.447.447,0,0,1-.3-.164c-.115-.124-.3-.244-.494-.408a5.7,5.7,0,0,0-.716-.488,3.044,3.044,0,0,0-1.017-.488,8.306,8.306,0,0,0-1.362-.408,7.367,7.367,0,0,0-1.737-.164A7.805,7.805,0,0,0,74.3,1.91a7.219,7.219,0,0,0-2.568,1.91,9.326,9.326,0,0,0-1.7,2.97,11.676,11.676,0,0,0-.6,3.941,11.949,11.949,0,0,0,.6,3.989A8.885,8.885,0,0,0,71.7,17.69a7.656,7.656,0,0,0,2.494,1.867,7.134,7.134,0,0,0,3.095.655,8.994,8.994,0,0,0,1.885-.164,5.509,5.509,0,0,0,1.514-.452,6.71,6.71,0,0,0,1.28-.727,7.182,7.182,0,0,0,1.173-1.015c.037-.044.074-.084.111-.084.037.084.115.04.152.04" transform="translate(5.409)" fill="#fff" fill-rule="evenodd"/>
      <path id="Fill-963" d="M98.955,0V1.291H87.585v8.755h9.454V11.3H87.585V20.3h11.37v1.291H86V0Z" transform="translate(6.841)" fill="#fff" fill-rule="evenodd"/>
      <path id="Fill-965" d="M115.034,0V3.217h-9.875V9.6h8.322V12.81h-8.322v8.781H101V.044h14.034Z" transform="translate(8.034)" fill="#fff" fill-rule="evenodd"/>
      <path id="Fill-966" d="M133.543,10.8a9.228,9.228,0,0,0-.484-3.094,7.02,7.02,0,0,0-1.318-2.345,5.789,5.789,0,0,0-2.121-1.467,7.879,7.879,0,0,0-5.6,0,6.115,6.115,0,0,0-2.125,1.467A6.6,6.6,0,0,0,120.528,7.7a9.331,9.331,0,0,0-.48,3.094,9.371,9.371,0,0,0,.48,3.1,6.579,6.579,0,0,0,1.362,2.341,6.178,6.178,0,0,0,2.125,1.471,7.935,7.935,0,0,0,5.6,0,6.2,6.2,0,0,0,2.121-1.471,7,7,0,0,0,1.318-2.341,9.268,9.268,0,0,0,.484-3.1m4.048,0a11.566,11.566,0,0,1-.761,4.3,9.863,9.863,0,0,1-2.209,3.426,10.185,10.185,0,0,1-3.408,2.271,11.338,11.338,0,0,1-4.414.795,12.045,12.045,0,0,1-4.418-.795,10.019,10.019,0,0,1-3.408-2.271,9.863,9.863,0,0,1-2.209-3.426A11.566,11.566,0,0,1,116,10.8a11.6,11.6,0,0,1,.761-4.3,9.863,9.863,0,0,1,2.209-3.426A10.684,10.684,0,0,1,122.379.795a12.354,12.354,0,0,1,8.833.043,10.641,10.641,0,0,1,3.408,2.271,10.484,10.484,0,0,1,2.209,3.426,12.03,12.03,0,0,1,.761,4.26" transform="translate(9.228)" fill="#fff" fill-rule="evenodd"/>
      <path id="Fill-967" d="M143.05,10.265h.842a4.864,4.864,0,0,0,1.791-.284,3.591,3.591,0,0,0,1.248-.777,2.959,2.959,0,0,0,.73-1.181,4.9,4.9,0,0,0,.255-1.506,3.169,3.169,0,0,0-.986-2.523,4.417,4.417,0,0,0-2.967-.9h-2.338v18.5H138V0h5.927a11.9,11.9,0,0,1,3.4.449,5.937,5.937,0,0,1,2.309,1.258,4.937,4.937,0,0,1,1.316,1.962,6.966,6.966,0,0,1,.439,2.519A7.658,7.658,0,0,1,151.1,8.27a5.739,5.739,0,0,1-.842,1.75,5.841,5.841,0,0,1-1.352,1.386,5.836,5.836,0,0,1-1.831.941,3.849,3.849,0,0,1,1.173,1.218l4.866,7.986h-3.255a1.634,1.634,0,0,1-.809-.2,1.4,1.4,0,0,1-.547-.613l-4.061-6.925c-.112-.164-.331-.533-.55-.573h-1.28V10.633c.036-.368.439-.368.439-.368" transform="translate(10.978)" fill="#fff" fill-rule="evenodd"/>
      <path id="Fill-968" d="M163.777,18.531a9.369,9.369,0,0,0,2.264-.242,9.942,9.942,0,0,0,1.834-.672V12.844H165.3a.968.968,0,0,1-.587-.2.715.715,0,0,1-.234-.516V9.9h6.873v9.467a8.878,8.878,0,0,1-1.643.993,12.237,12.237,0,0,1-1.834.715,11.3,11.3,0,0,1-2.069.4,22.578,22.578,0,0,1-2.379.117,11.054,11.054,0,0,1-4.179-.793,9.165,9.165,0,0,1-3.281-2.228,10.58,10.58,0,0,1-2.184-3.42A11.953,11.953,0,0,1,153,10.815a12.173,12.173,0,0,1,.745-4.374,9.888,9.888,0,0,1,2.145-3.42A9.568,9.568,0,0,1,159.286.8a12.127,12.127,0,0,1,4.452-.8,11.221,11.221,0,0,1,4.371.754,10.388,10.388,0,0,1,3.124,1.989L170.1,4.534a1.021,1.021,0,0,1-.86.559,1.24,1.24,0,0,1-.7-.242c-.311-.2-.622-.36-.936-.559a4.654,4.654,0,0,0-1.052-.477,11.2,11.2,0,0,0-1.29-.317,10.611,10.611,0,0,0-1.681-.117,6.867,6.867,0,0,0-2.771.516A5.738,5.738,0,0,0,158.7,5.409a6.484,6.484,0,0,0-1.328,2.345,9.414,9.414,0,0,0-.472,3.06,9.3,9.3,0,0,0,.51,3.26,7.183,7.183,0,0,0,1.4,2.388,6.368,6.368,0,0,0,2.149,1.509,7.2,7.2,0,0,0,2.809.559" transform="translate(12.171)" fill="#fff" fill-rule="evenodd"/>
      <path id="Fill-969" d="M183.965,12.915H177.2v5.457h9.834v3.219H173V0h14.034V3.223h-9.875V9.861h7.773v2.362s-.041.693-.966.693" transform="translate(13.762)" fill="#fff" fill-rule="evenodd"/>
    </g>
  </g>
</svg>
